<svg height="448pt" viewBox="-27 0 448 448" width="448pt" xmlns="http://www.w3.org/2000/svg">
  <path d="m268.972656 224c0-13.847656-.472656-27.464844-1.296875-40.800781-11.199219-7.429688-22.769531-14.65625-34.703125-21.550781-11.9375-6.894532-24.050781-13.335938-36-19.296876-11.929687 5.9375-24 12.351563-36 19.296876-12 6.945312-23.554687 14.144531-34.691406 21.519531-.839844 13.398437-1.308594 27.046875-1.308594 40.832031s.46875 27.480469 1.292969 40.800781c11.113281 7.359375 22.671875 14.582031 34.707031 21.527344 12.03125 6.945313 24 13.328125 36 19.28125 12-5.96875 24.070313-12.394531 36-19.28125 11.925782-6.886719 23.558594-14.144531 34.703125-21.527344.824219-13.289062 1.296875-26.90625 1.296875-40.800781zm0 0" fill="#fff"/>
  <path d="m127.84375 284.878906c1.558594 16.527344 3.703125 32.488282 6.503906 47.527344 14.398438-5.101562 29.34375-11.199219 44.421875-18.109375-8.597656-4.488281-17.214843-9.128906-25.796875-14.089844-8.585937-4.960937-16.953125-10.109375-25.128906-15.328125zm0 0" fill="#fff"/>
  <path d="m266.105469 284.886719c-8.199219 5.21875-16.535157 10.402343-25.132813 15.320312-8.601562 4.921875-17.210937 9.601563-25.859375 14.097657 15.121094 6.917968 30.035157 13.046874 44.480469 18.152343 2.761719-14.96875 4.953125-30.90625 6.511719-47.570312zm0 0" fill="#fff" />
  <path d="m196.972656 448c7.890625-.546875 15.238282-4.230469 20.398438-10.230469 16.421875-16.394531 29.929687-48.496093 39.015625-89.488281-20.285157-7.132812-40.148438-15.414062-59.496094-24.800781-19.289063 9.34375-39.089844 17.601562-59.304687 24.726562 2.773437 12.609375 6.246093 25.050781 10.402343 37.273438 13.679688 39.6875 31.535157 62.519531 48.984375 62.519531zm0 0" fill="#fff" />
  <path d="m371.867188 99.457031c-7.636719-1.910156-15.488282-2.816406-23.359376-2.695312-25.085937.890625-49.90625 5.472656-73.65625 13.597656 3.972657 21.160156 6.730469 42.527344 8.261719 64 17.742188 12.027344 34.789063 25.046875 51.066407 38.992187 9.535156-8.695312 18.582031-17.910156 27.09375-27.609374 27.570312-31.75 38.402343-58.605469 29.664062-73.703126-4.410156-6.585937-11.28125-11.121093-19.070312-12.582031zm0 0" fill="#fff" />
  <path d="m372.972656 280c3.382813-.007812 6.679688-1.089844 9.414063-3.089844 4.171875-2.96875 6.628906-7.789062 6.585937-12.910156 0-8.835938-7.164062-16-16-16-3.835937-.023438-7.542968 1.378906-10.402344 3.9375-3.550781 3-5.601562 7.414062-5.597656 12.0625 0 8.835938 7.160156 16 16 16zm0 0" fill="#fff" />
  <path d="m322.171875 224c-11.640625-9.945312-24.394531-19.800781-37.90625-29.414062.417969 9.726562.707031 19.503906.707031 29.414062s-.28125 19.734375-.714844 29.425781c13.511719-9.609375 26.3125-19.441406 37.914063-29.425781zm0 0" fill="#fff" />
  <path d="m312.265625 347.199219c41.257813 8 69.945313 3.9375 78.65625-11.199219 5.496094-9.464844 3.058594-24.214844-6.808594-42.007812-.175781.0625-.359375.085937-.535156.152343-1.167969.394531-2.359375.71875-3.566406.976563-.5625.125-1.105469.3125-1.671875.40625-9.300782 1.644531-18.851563-.921875-26.066406-7.011719-7.21875-6.089844-11.359376-15.070313-11.300782-24.515625.023438-2.046875.242188-4.089844.652344-6.097656.105469-.519532.226562-1.03125.355469-1.542969.421875-1.738281.988281-3.4375 1.695312-5.078125.09375-.226562.160157-.464844.261719-.6875.691406-1.488281 1.496094-2.917969 2.402344-4.28125-3.839844-3.855469-7.90625-7.726562-12.113282-11.59375-16.308593 13.984375-33.402343 27.023438-51.199218 39.058594-1.574219 21.371094-4.351563 42.636718-8.328125 63.695312 12.332031 3.9375 24.875 7.183594 37.566406 9.726563zm0 0" fill="#fff"/>
  <path d="m266.097656 163.136719c-1.597656-16.570313-3.710937-32.550781-6.519531-47.625-14.398437 5.105469-29.269531 11.160156-44.496094 18.144531 8.632813 4.503906 17.273438 9.160156 25.890625 14.136719 8.613282 4.976562 16.910156 10.101562 25.125 15.34375zm0 0" fill="#fff" />
  <path d="m71.730469 224c11.585937 9.871094 24.296875 19.734375 37.945312 29.425781-.417969-9.699219-.703125-19.488281-.703125-29.425781s.292969-19.703125.726563-29.441406c-13.527344 9.632812-26.328125 19.480468-37.96875 29.441406zm0 0" fill="#fff" />
  <path d="m81.675781 100.839844c-12.214843-2.496094-24.632812-3.835938-37.097656-4-21.207031 0-35.773437 5.152344-41.558594 15.199218-3.488281 7.117188-3.976562 15.335938-1.351562 22.816407 5.984375 22.402343 27.03125 50.160156 57.984375 78.527343 16.320312-14.007812 33.429687-27.074218 51.246094-39.125 1.550781-21.375 4.300781-42.648437 8.242187-63.714843-12.300781-3.921875-24.808594-7.164063-37.464844-9.703125zm0 0" fill="#fff" />
  <path d="m96.449219 333.40625c1.28125 1.238281 2.460937 2.574219 3.523437 4 .148438.210938.335938.394531.484375.601562.945313 1.335938 1.785157 2.746094 2.515625 4.207032 5.261719-1.398438 10.636719-2.976563 16.09375-4.6875-3.957031-21.105469-6.710937-42.421875-8.238281-63.839844-17.726563-12.046875-34.753906-25.089844-51-39.0625-9.558594 8.710938-18.628906 17.945312-27.160156 27.664062-27.570313 31.726563-38.378907 58.582032-29.664063 73.710938 5.445313 9.488281 19.445313 14.761719 39.78125 15.105469 0-.195313.105469-.378907.144532-.570313.242187-1.195312.554687-2.378906.929687-3.542968.167969-.550782.289063-1.121094.488281-1.664063.613282-1.691406 1.371094-3.328125 2.261719-4.886719 1.082031-1.867187 2.34375-3.617187 3.769531-5.234375.167969-.191406.382813-.335937.558594-.527343 8.273438-9.027344 21.019531-12.460938 32.707031-8.800782.261719.082032.535157.097656.796875.183594 2.042969.6875 4.015625 1.574219 5.882813 2.648438 1.757812 1.042968 3.410156 2.25 4.933593 3.609374.417969.351563.808594.710938 1.191407 1.085938zm0 0" fill="#fff" />
  <path d="m129.769531 59.574219c1.894531 3.332031 4.960938 5.839843 8.601563 7.035156 6.300781 2.238281 13.332031.308594 17.601562-4.839844 4.273438-5.148437 4.875-12.414062 1.511719-18.195312-1.707031-2.929688-4.292969-5.246094-7.394531-6.621094-4.664063-2.105469-10.058594-1.808594-14.464844.800781-7.632812 4.414063-10.25 14.175782-5.855469 21.820313zm0 0" fill="#fff" />
  <path d="m165.257812 75.078125c-.152343.144531-.261718.3125-.414062.449219-1.617188 1.425781-3.367188 2.6875-5.234375 3.769531-1.285156.738281-2.621094 1.390625-4 1.941406-.496094.203125-1 .335938-1.503906.515625-.894531.308594-1.796875.613282-2.710938.839844-.589843.148438-1.183593.238281-1.777343.351562-.863282.167969-1.71875.3125-2.589844.40625-.609375.054688-1.214844.089844-1.824219.113282-.488281 0-.96875.09375-1.449219.09375-.3125 0-.613281-.0625-.925781-.070313-.3125-.007812-.800781 0-1.183594 0-1.417969 5.253907-2.738281 10.703125-4 16.289063 20.253907 7.128906 40.085938 15.40625 59.398438 24.796875 19.300781-9.324219 39.109375-17.554688 59.335937-24.644531-2.769531-12.636719-6.242187-25.105469-10.398437-37.355469-13.707031-39.742188-31.5625-62.574219-49.007813-62.574219h-.066406c-10.917969 0-22.464844 9.480469-32.925781 26.894531.160156.128907.277343.296875.4375.433594.894531.789063 1.738281 1.628906 2.535156 2.511719.417969.441406.867187.839844 1.25 1.304687 1.15625 1.378907 2.191406 2.847657 3.105469 4.398438 1.074218 1.867187 1.960937 3.832031 2.644531 5.871093.089844.273438.105469.546876.1875.800782 3.671875 11.734375.203125 24.53125-8.898437 32.800781zm0 0" fill="#fff" />
  <path d="m152.972656 147.792969c8.605469-4.96875 17.230469-9.601563 25.839844-14.105469-15.097656-6.910156-29.984375-13.03125-44.410156-18.128906-2.800782 15.050781-4.960938 31.027344-6.527344 47.53125 8.183594-5.210938 16.503906-10.347656 25.097656-15.296875zm0 0" fill="#fff"/>
  <path d="m89.980469 353.457031c-1.011719-5.949219-5.378907-10.773437-11.203125-12.359375-.308594-.097656-.628906-.152344-.949219-.226562-.964844-.21875-1.949219-.347656-2.9375-.382813-.28125 0-.550781 0-.800781 0-2.570313.046875-5.097656.710938-7.359375 1.9375-.222657.117188-.421875.261719-.640625.398438-.882813.535156-1.710938 1.15625-2.472656 1.855469-.238282.222656-.476563.433593-.710938.671874-.925781.929688-1.730469 1.96875-2.398438 3.097657-1.6875 2.9375-2.402343 6.332031-2.039062 9.703125.488281 5.09375 3.4375 9.628906 7.894531 12.144531 7.648438 4.417969 17.433594 1.800781 21.855469-5.847656 1.933594-3.320313 2.5625-7.238281 1.761719-10.992188zm0 0" fill="#fff" />
</svg>
