<svg height="443pt" viewBox="-62 0 443 443.2" width="443pt" xmlns="http://www.w3.org/2000/svg"><path d="m218.125 122.464844c-14.863281-5.042969-29.265625-11.351563-43.050781-18.855469l-28.101563 48.664063 48.359375 27.917968c9.988281-18.210937 17.648438-37.605468 22.792969-57.726562zm0 0"/><path d="m110.867188 214.792969c13.394531 8.1875 26.070312 17.503906 37.882812 27.847656 14.832031-14.523437 27.792969-30.847656 38.574219-48.59375l-48.351563-27.917969zm0 0"/><path d="m53.964844 187.9375c14.859375 5.042969 29.261718 11.351562 43.046875 18.855469l28.105469-48.664063-48.359376-27.921875c-9.992187 18.210938-17.648437 37.605469-22.792968 57.730469zm0 0"/><path d="m84.765625 116.351562 48.351563 27.921876 28.101562-48.664063c-13.394531-8.191406-26.066406-17.507813-37.878906-27.847656-14.835938 14.523437-27.792969 30.847656-38.574219 48.589843zm0 0"/><path d="m266.386719 117.113281c-.191407-.65625-.328125-1.328125-.527344-1.976562-.558594-1.816407-1.214844-3.59375-1.847656-5.375-.902344-2.539063-1.832031-5.050781-2.871094-7.515625-.753906-1.78125-1.601563-3.535156-2.402344-5.277344-1.128906-2.375-2.316406-4.714844-3.566406-7.023438-.933594-1.703124-1.902344-3.386718-2.910156-5.058593-1.355469-2.238281-2.785157-4.429688-4.265625-6.582031-1.089844-1.601563-2.183594-3.199219-3.34375-4.71875-1.601563-2.128907-3.28125-4.179688-5-6.203126-.671875-.796874-1.351563-1.597656-2.046875-2.398437 2.398437 15.4375 2.125 31.171875-.800781 46.519531 9.679687 2.722656 19.578124 4.597656 29.582031 5.609375zm0 0"/><path d="m209.1875 188.191406 48.320312 27.898438c12.8125-25.578125 17.210938-54.550782 12.558594-82.777344-12.382812-.804688-24.652344-2.875-36.613281-6.175781-5.523437 21.28125-13.671875 41.789062-24.265625 61.054687zm0 0"/><path d="m62.898438 122.207031-48.316407-27.894531c-13.011719 25.515625-17.414062 54.550781-12.5625 82.777344 12.382813.804687 24.652344 2.871094 36.617188 6.167968 5.523437-21.277343 13.675781-41.785156 24.261719-61.050781zm0 0"/><path d="m5.699219 193.289062c.191406.65625.328125 1.328126.527343 1.976563.5625 1.8125 1.21875 3.589844 1.847657 5.375.90625 2.535156 1.832031 5.046875 2.875 7.511719.75 1.785156 1.597656 3.535156 2.398437 5.28125 1.125 2.371094 2.316406 4.714844 3.570313 7.023437.929687 1.707031 1.902343 3.390625 2.910156 5.054688 1.351563 2.242187 2.785156 4.433593 4.265625 6.585937 1.085938 1.597656 2.183594 3.199219 3.34375 4.71875 1.597656 2.128906 3.277344 4.175782 5 6.199219.671875.800781 1.351562 1.601563 2.046875 2.398437-2.394531-15.4375-2.125-31.175781.800781-46.527343-9.683594-2.714844-19.582031-4.589844-29.585937-5.597657zm0 0"/><path d="m136.628906 253.28125c-10.578125-9.101562-21.867187-17.339844-33.761718-24.632812l-27.261719 47.199218c16.207031 4.105469 38.132812-4.007812 61.023437-22.566406zm0 0"/><path d="m60.226562 42.335938c-14.953124 10.085937-27.75 23.042968-37.644531 38.121093l48.324219 27.894531c11.394531-18.792968 25.070312-36.105468 40.722656-51.535156-8.832031-8.722656-16.757812-18.324218-23.648437-28.648437-9.761719 3.648437-19.070313 8.402343-27.753907 14.167969zm0 0"/><path d="m132.980469 395.199219h38.128906l-19.066406-38.175781zm0 0"/><path d="m288.042969 435.199219c0-13.253907-10.742188-24-24-24h-224c-13.253907 0-24 10.746093-24 24v8h272zm0 0"/><path d="m89.011719 220.648438c-12.285157-6.660157-25.085938-12.320313-38.28125-16.921876-4.574219 28.890626-.550781 52.210938 10.96875 64.226563zm0 0"/><path d="m313.765625 107.566406c-11.769531-44.527344-39.949219-82.957031-78.882813-107.566406l-.796874 1.335938-15.347657 26.558593c67.835938 43.933594 89.359375 133.3125 48.953125 203.304688-40.375 70.023437-128.554687 96.105469-200.527344 59.3125l-16.105468 27.886719c29.71875 15.570312 63.148437 22.644531 96.625 20.449218l1.550781-.105468c1.777344-.132813 3.554687-.253907 5.273437-.476563 58.832032-6.03125 111.207032-39.894531 140.847657-91.066406 24.542969-42.214844 31.167969-92.496094 18.410156-139.632813zm0 0"/><path d="m183.074219 89.753906c12.285156 6.65625 25.082031 12.316406 38.273437 16.917969 4.585938-28.878906.558594-52.207031-10.960937-64.222656zm0 0"/><path d="m120.84375 290.191406c1.96875.222656 3.945312.375 5.921875.511719 2.445313.175781 4.898437.285156 7.359375.328125 1.992188 0 4 0 5.984375-.039062 2.460937-.070313 4.933594-.230469 7.398437-.441407 1.960938-.160156 3.914063-.328125 5.871094-.582031 2.546875-.320312 5.082032-.800781 7.617188-1.242188 1.832031-.34375 3.671875-.65625 5.503906-1.070312.601562-.144531 1.191406-.34375 1.792969-.488281-5.886719-8.207031-12.476563-15.882813-19.695313-22.945313-11.742187 10.207032-25.128906 18.351563-39.59375 24.082032 1.472656.304687 2.945313.550781 4.425782.800781 2.421874.421875 4.894531.804687 7.414062 1.085937zm0 0"/><path d="m249.507812 229.945312-48.328124-27.898437c-11.390626 18.796875-25.070313 36.105469-40.71875 51.539063 8.832031 8.722656 16.753906 18.320312 23.648437 28.644531 26.753906-10.117188 49.640625-28.414063 65.398437-52.285157zm0 0"/><path d="m151.074219 20.175781c-1.796875-.199219-3.597657-.335937-5.40625-.464843-2.640625-.191407-5.289063-.3125-7.9375-.34375-1.8125 0-3.628907 0-5.445313 0-2.664062.074218-5.320312.242187-8 .464843-1.671875.152344-3.34375.296875-5.015625.503907l-.519531.0625c-2.632812.335937-5.25.800781-7.875 1.28125-1.734375.328124-3.488281.625-5.214844 1.023437-.625.144531-1.230468.351563-1.847656.503906 5.871094 8.179688 12.441406 15.835938 19.640625 22.882813 11.78125-10.203125 25.214844-18.320313 39.726563-24-1.390626-.289063-2.785157-.523438-4.183594-.800782-2.617188-.402343-5.257813-.808593-7.921875-1.113281zm0 0"/><path d="m135.394531 57.070312c10.597657 9.121094 21.910157 17.375 33.824219 24.683594l27.28125-47.203125c-2.847656-.746093-5.78125-1.132812-8.726562-1.152343-14.976563-.03125-33.328126 8.203124-52.378907 23.671874zm0 0"/></svg>