<svg height="414pt" viewBox="0 -1 414.31829 414" width="414pt" xmlns="http://www.w3.org/2000/svg"><path d="m54.757812 312.625 260.855469-259.527344 45.289063 45.515625-260.855469 259.527344zm0 0"/><path d="m411.976562 47.820312c3.121094-3.121093 3.121094-8.1875 0-11.3125l-33.847656-34.007812c-3.125-3.121094-8.1875-3.121094-11.3125 0l-39.695312 39.425781 45.152344 45.375zm0 0"/><path d="m0 412.390625 86.558594-45.066406-41.054688-41.261719zm0 0"/><path d="m400.433594 115.683594-28.21875-28.308594-11.359375 11.269531 22.585937 22.65625-96.457031 95.871094c-3.132813 3.117187-3.144531 8.183594-.027344 11.316406 3.117188 3.132813 8.183594 3.144531 11.316407.027344l102.125-101.511719c1.503906-1.5 2.347656-3.535156 2.347656-5.660156 0-2.121094-.84375-4.15625-2.347656-5.660156zm0 0"/></svg>