<svg height="448pt" viewBox="-56 0 448 448" width="448pt" xmlns="http://www.w3.org/2000/svg"><path d="m284.289062 212.289062c-3.816406 0-7.101562 2.695313-7.847656 6.4375-.746094 3.742188 1.257813 7.492188 4.78125 8.953126 3.527344 1.460937 7.59375.226562 9.714844-2.945313s1.703125-7.402344-.992188-10.101563c-1.5-1.503906-3.535156-2.351562-5.65625-2.34375zm0 0"/><path d="m336 112h-160v160h160zm-125.265625 34.753906c9.375-9.375 24.570313-9.378906 33.945313-.003906 9.371093 9.371094 9.371093 24.570312 0 33.941406-9.375 9.371094-24.570313 9.371094-33.945313-.003906-9.367187-9.371094-9.367187-24.5625 0-33.933594zm-5.644531 84.847656 90.511718-90.511718 11.308594 11.308594-90.511718 90.511718zm96.175781 5.644532c-9.375 9.375-24.570313 9.378906-33.945313.003906-9.371093-9.371094-9.371093-24.570312 0-33.941406 9.375-9.371094 24.570313-9.371094 33.945313.003906 9.367187 9.371094 9.367187 24.5625 0 33.933594zm0 0"/><path d="m233.375 169.367188c3.125-3.125 3.125-8.1875.003906-11.3125-3.125-3.125-8.191406-3.125-11.316406 0s-3.125 8.1875 0 11.3125 8.191406 3.125 11.3125 0zm0 0"/><path d="m176 448h160v-160h-160zm16-104h128v16h-128zm0 32h128v16h-128zm0 0"/><path d="m0 272h160v-160h-160zm16-88h56v-56h16v56h56v16h-56v56h-16v-56h-56zm0 0"/><path d="m0 0h336v96h-336zm0 0"/><path d="m0 288v160h160v-160zm130.910156 119.601562-11.308594 11.308594-39.601562-39.597656-39.601562 39.597656-11.308594-11.308594 39.597656-39.601562-39.597656-39.601562 11.308594-11.308594 39.601562 39.597656 39.601562-39.597656 11.308594 11.308594-39.597656 39.601562zm0 0"/></svg>