<svg height="448pt" viewBox="0 -1 448 448" width="448pt" xmlns="http://www.w3.org/2000/svg">
  <path d="m40 366.199219h128c4.417969 0 8-3.582031 8-8s-3.582031-8-8-8h-128c-4.417969 0-8 3.582031-8 8s3.582031 8 8 8zm0 0" fill="#fff"/>
  <path d="m110.839844 265.445312 23.988281-41.558593 27.679687 15.976562-23.988281 41.558594zm0 0" fill="#fff"/>
  <path d="m0 446.199219h448v-24c0-13.253907-10.746094-24-24-24h-36.160156c-3.003906 0-5.753906-1.683594-7.121094-4.359375-1.367188-2.675782-1.121094-5.894532.640625-8.328125 22.617187-31.199219 34.746094-68.777344 34.640625-107.3125-.136719-60.417969-29.828125-116.949219-79.496094-151.351563-.105468.648438-.273437 1.28125-.398437 1.921875-.082031.4375-.167969.871094-.265625 1.308594-.554688 2.550781-1.289063 5.058594-2.199219 7.507813-.136719.359374-.296875.710937-.433594 1.0625-1.003906 2.574218-2.195312 5.070312-3.558593 7.472656-.175782.320312-.402344.597656-.585938.910156-.855469 1.417969-1.726562 2.808594-2.695312 4.136719-.414063.574219-.894532 1.105469-1.335938 1.664062-.800781 1.007813-1.597656 2.03125-2.457031 2.984375-.078125.085938-.140625.183594-.222657.273438 37.847657 27.945312 60.605469 71.855468 61.613282 118.894531 1.011718 47.039063-19.839844 91.886719-56.453125 121.429687-1.421875 1.15625-3.199219 1.785157-5.03125 1.785157h-298.480469c-13.253906 0-24 10.746093-24 24zm0 0" fill="#fff"/>
  <path d="m115.0625 194.03125 20.601562 11.871094c.078126 0 .175782 0 .265626.089844l40.460937 23.40625 21.882813 12.617187 46.816406-81.113281c-.226563-.183594-.410156-.398438-.625-.589844-.761719-.65625-1.449219-1.382812-2.167969-2.089844-1.320313-1.277344-2.59375-2.589844-3.777344-4-.6875-.796875-1.34375-1.597656-1.984375-2.480468-1.148437-1.523438-2.214844-3.105469-3.199218-4.742188-.480469-.800781-.984376-1.542969-1.414063-2.351562-1.359375-2.476563-2.523437-5.050782-3.480469-7.703126-5.59375-15.464843-4.050781-32.609374 4.214844-46.824218 1.753906-3.152344 3.847656-6.101563 6.238281-8.800782 2.007813-2.308593 4.195313-4.445312 6.546875-6.398437.796875-.699219 1.734375-1.25 2.605469-1.890625 1.511719-1.148438 3.085937-2.21875 4.714844-3.199219 1.0625-.640625 2.183593-1.144531 3.285156-1.703125 1.527344-.800781 3.058594-1.527344 4.640625-2.152344 1.199219-.472656 2.402344-.847656 3.65625-1.234374 1.601562-.496094 3.136719-.949219 4.746094-1.300782 1.269531-.28125 2.542968-.496094 3.839844-.6875 1.597656-.242187 3.199218-.410156 4.871093-.507812 1.296875-.070313 2.582031-.117188 3.886719-.101563 1.671875 0 3.335938.152344 5.007812.320313 1.273438.136718 2.535157.246094 3.800782.472656 1.742187.292969 3.464844.75 5.191406 1.222656 1.167969.320313 2.34375.582032 3.503906.984375.320313.113281.65625.160157.976563.269531l10.078125-17.414062-83.199219-48zm0 0" fill="#fff"/>
  <path d="m301.199219 83.449219c-.257813-.167969-.523438-.316407-.800781-.449219-.34375-.183594-.703126-.3125-1.054688-.480469-1.5-.75-3.042969-1.402343-4.625-1.960937-1.007812-.359375-2.015625-.679688-3.03125-.949219-.742188-.210937-1.480469-.371094-2.222656-.53125-2.777344-.609375-5.613282-.929687-8.457032-.949219-2.742187.003906-5.476562.292969-8.160156.863282-.3125.0625-.617187.183593-.925781.253906-2.15625.515625-4.261719 1.210937-6.296875 2.082031-.6875.296875-1.367188.617187-2.039062.953125-1.703126.84375-3.34375 1.8125-4.90625 2.894531-.632813.433594-1.28125.800781-1.894532 1.304688-2.117187 1.613281-4.074218 3.433593-5.832031 5.429687-1.667969 1.875-3.125 3.925782-4.34375 6.113282-10.78125 18.605468-4.921875 42.40625 13.261719 53.878906.527344.34375.898437.546875 1.257812.761718 13.707032 7.953126 30.8125 7.082032 43.640625-2.222656 4.503907-3.273437 8.265625-7.464844 11.03125-12.296875 5.34375-9.179687 6.8125-20.113281 4.074219-30.375-2.734375-10.265625-9.445312-19.019531-18.652344-24.320312zm0 0" fill="#fff"/>
</svg>
