<?xml version="1.0" standalone="no"?>
<!DOCTYPE svg PUBLIC "-//W3C//DTD SVG 20010904//EN"
 "http://www.w3.org/TR/2001/REC-SVG-20010904/DTD/svg10.dtd">
<svg version="1.0" xmlns="http://www.w3.org/2000/svg"
 width="316.000000pt" height="316.000000pt" viewBox="0 0 316.000000 316.000000"
 preserveAspectRatio="xMidYMid meet">

<g transform="translate(0.000000,316.000000) scale(0.100000,-0.100000)"
fill="#000000" stroke="none">
<path d="M1410 2980 c-323 -40 -611 -180 -835 -405 -168 -169 -280 -350 -349
-564 -55 -170 -70 -284 -63 -485 6 -181 27 -295 80 -437 181 -480 605 -825
1111 -906 124 -19 384 -13 496 12 325 73 597 237 798 480 405 489 438 1159 85
1693 -70 106 -212 255 -321 337 -164 123 -399 225 -597 260 -113 20 -307 27
-405 15z m462 -44 c815 -189 1284 -1036 1008 -1821 -142 -404 -478 -731 -887
-864 -143 -46 -261 -64 -423 -64 -383 0 -715 137 -985 408 -204 204 -325 429
-387 719 -40 193 -27 453 33 659 150 511 590 894 1126 982 134 22 378 13 515
-19z"/>
<path d="M1527 2830 c-47 -37 -44 -135 4 -160 23 -13 99 -13 99 0 0 6 -17 10
-38 10 -50 0 -72 24 -72 77 0 50 23 73 73 73 20 0 37 5 37 10 0 19 -76 11
-103 -10z"/>
<path d="M1757 2744 c-12 -57 -15 -90 -8 -97 6 -6 12 3 16 26 12 64 30 64 55
2 12 -30 28 -55 36 -55 9 0 6 15 -12 55 -13 31 -24 59 -24 64 0 5 19 21 42 37
29 21 37 30 25 32 -9 2 -38 -14 -63 -35 -37 -29 -46 -33 -41 -18 16 59 17 75
4 75 -8 0 -19 -32 -30 -86z"/>
<path d="M1235 2795 c-34 -33 -35 -103 -1 -141 33 -40 89 -39 123 1 21 24 24
36 20 74 -9 82 -89 120 -142 66z m85 -5 c22 -12 44 -72 35 -99 -18 -58 -82
-64 -110 -11 -39 75 9 145 75 110z"/>
<path d="M1013 2722 c-29 -14 -53 -30 -53 -35 0 -5 6 -7 13 -4 6 3 19 8 28 11
12 5 23 -11 50 -68 19 -42 40 -75 47 -76 17 0 16 2 -23 80 -41 81 -42 86 -15
93 11 3 20 10 20 16 0 15 -8 13 -67 -17z"/>
<path d="M2152 2668 c-17 -17 -15 -49 7 -82 35 -53 -8 -89 -55 -45 -13 12 -24
16 -28 11 -9 -14 42 -52 70 -52 26 0 54 24 54 47 0 9 -9 31 -21 50 -12 18 -18
40 -15 48 7 20 41 19 61 -1 23 -23 32 -8 10 16 -20 22 -64 27 -83 8z"/>
<path d="M818 2604 c-35 -18 -47 -59 -24 -82 11 -12 34 -17 69 -17 46 0 52 -3
55 -22 2 -16 -5 -28 -28 -42 -17 -10 -28 -21 -23 -24 5 -3 24 3 41 13 26 16
32 26 32 55 0 43 -20 55 -82 48 -40 -5 -49 -3 -55 12 -4 13 2 25 22 41 35 28
31 38 -7 18z"/>
<path d="M1641 2543 c-1 -35 -16 -45 -24 -15 -4 16 -5 16 -6 0 -1 -21 -12 -23
-30 -5 -9 8 -8 -1 3 -28 20 -47 33 -57 67 -51 l25 5 -4 -83 c-5 -100 9 -156
78 -306 27 -58 54 -127 61 -153 17 -68 7 -192 -19 -243 l-21 -41 -50 8 c-136
21 -236 108 -275 239 -30 101 -18 191 44 324 35 76 60 178 59 241 0 39 -1 39
-23 -27 -13 -37 -51 -125 -84 -195 -91 -192 -108 -275 -77 -380 31 -104 115
-179 277 -245 l79 -32 -23 -19 c-13 -10 -48 -30 -78 -45 -49 -24 -67 -27 -160
-27 -94 0 -111 3 -165 28 -98 46 -159 116 -189 217 -31 105 -19 183 53 340 68
146 82 194 84 277 l1 73 30 -3 c38 -3 76 49 75 102 l-1 36 -10 -34 c-6 -24
-12 -31 -18 -22 -6 11 -9 11 -13 0 -4 -10 -11 -7 -27 11 l-21 25 6 -35 c6 -33
5 -34 -10 -16 -15 19 -15 19 -15 -2 0 -20 -2 -21 -22 -11 l-21 12 20 -26 c17
-22 19 -34 12 -76 -4 -27 -15 -63 -23 -80 l-16 -30 -34 36 c-33 37 -33 37 -12
48 24 12 43 73 31 101 -7 16 -9 15 -14 -10 -7 -37 -12 -37 -46 -6 l-28 25 17
-32 c16 -33 11 -44 -11 -22 -9 9 -10 6 -6 -10 4 -16 2 -20 -10 -15 -8 3 2 -13
23 -35 21 -22 46 -60 55 -85 l17 -45 -60 -128 c-32 -70 -65 -146 -73 -168 -7
-22 -16 -44 -20 -48 -3 -5 -47 21 -98 57 -50 35 -97 66 -104 69 -8 3 -7 10 6
25 22 24 17 51 -20 100 -28 38 -43 37 -18 -1 15 -24 15 -26 -4 -32 -10 -3 -32
-3 -48 0 l-28 7 33 -22 c36 -25 41 -34 13 -25 -15 5 -19 1 -17 -20 1 -17 7
-25 20 -25 26 0 74 -37 174 -134 62 -60 82 -86 82 -106 0 -15 6 -48 14 -75
l15 -48 -80 6 -81 5 -51 55 c-34 35 -75 66 -117 86 -51 25 -59 27 -35 9 17
-13 52 -44 78 -70 39 -37 48 -52 45 -75 -3 -24 -15 -34 -91 -72 -48 -24 -86
-45 -85 -47 2 -1 41 9 88 23 65 19 116 26 215 30 l130 5 45 -37 c55 -45 56
-49 28 -62 -13 -6 -66 -48 -118 -93 -98 -85 -176 -131 -270 -161 -68 -21 -35
-24 44 -4 97 25 155 56 263 137 57 43 121 83 142 89 35 10 44 8 123 -30 48
-23 97 -54 112 -72 26 -30 26 -31 26 -215 0 -146 -3 -184 -12 -178 -7 5 -40
25 -72 46 -33 21 -63 38 -67 38 -5 0 -46 -24 -92 -54 l-84 -54 -83 55 c-71 47
-86 54 -105 45 -34 -16 -349 -193 -359 -202 -9 -9 23 -59 38 -60 4 0 80 50
167 110 88 61 163 111 168 113 4 1 46 -28 92 -64 l85 -66 83 69 c46 37 88 68
93 68 5 0 41 -24 78 -53 l69 -52 1 -93 0 -92 -39 24 -39 25 -138 -71 c-77 -39
-141 -73 -143 -75 -3 -2 5 -13 16 -25 l22 -21 114 66 c63 36 119 68 125 69 5
2 57 -28 115 -65 l106 -68 111 70 c61 39 115 71 120 71 6 0 54 -31 107 -70 91
-66 98 -69 115 -53 18 16 14 19 -69 73 -163 104 -157 101 -179 86 -10 -7 -40
-25 -66 -40 l-48 -28 0 104 0 103 79 62 79 61 83 -69 c46 -38 88 -69 94 -69 5
1 46 30 89 65 44 35 85 61 91 57 6 -4 82 -56 168 -115 166 -114 171 -116 197
-66 8 15 -16 32 -180 124 -105 59 -196 105 -203 102 -6 -2 -45 -27 -86 -55
l-73 -51 -42 26 c-22 14 -60 39 -83 54 -23 16 -45 29 -50 29 -5 0 -41 -20 -81
-45 -40 -25 -74 -45 -77 -45 -3 0 -5 92 -5 205 0 229 1 233 69 299 39 38 41
39 78 28 21 -7 67 -27 103 -45 36 -19 118 -61 182 -95 125 -64 221 -93 310
-91 l53 1 -70 13 c-39 7 -87 20 -108 28 -70 30 -176 105 -192 138 -15 28 -15
31 -2 26 12 -4 14 -2 10 10 -5 12 -2 15 10 10 47 -19 52 -19 29 1 -26 24 -20
52 12 53 16 1 13 3 -11 11 -17 6 -44 7 -59 4 -25 -7 -26 -9 -22 -60 l4 -54
-63 42 c-34 22 -63 44 -63 48 0 3 21 16 47 29 36 17 70 23 148 27 113 5 199
-7 311 -42 41 -13 71 -20 68 -15 -9 15 -88 57 -132 70 -23 7 -47 18 -53 26
-21 24 11 73 89 134 41 33 68 59 61 59 -29 -1 -99 -40 -142 -79 -48 -44 -60
-50 -50 -24 4 11 3 14 -5 9 -17 -10 -15 4 3 24 13 15 12 16 -16 14 -28 -2 -30
0 -26 22 7 37 -11 18 -24 -26 -14 -46 -3 -67 39 -72 24 -3 25 -4 9 -20 -19
-19 -98 -31 -169 -26 l-47 3 57 45 c61 49 96 100 113 167 11 41 53 88 134 151
l30 22 -45 -21 c-25 -12 -57 -30 -72 -40 -14 -11 -28 -19 -31 -19 -2 0 -7 17
-11 38 -8 53 -56 144 -123 234 -90 120 -89 107 5 -97 42 -89 47 -108 47 -170
-1 -54 -6 -80 -24 -114 -48 -91 -147 -174 -235 -195 -26 -7 -28 -5 -21 16 14
44 17 159 6 204 -7 25 -43 115 -81 200 -112 246 -142 378 -100 431 11 14 20
33 20 42 0 11 -4 10 -16 -7 -16 -23 -41 -32 -28 -9 6 8 3 8 -9 -1 -14 -12 -17
-10 -22 15 -11 47 -13 50 -14 16z"/>
<path d="M1790 2499 c0 -41 36 -102 63 -107 22 -4 63 21 76 47 9 16 8 18 -11
13 -17 -4 -20 -2 -15 11 4 10 2 17 -3 17 -6 0 -10 -4 -10 -10 0 -5 -4 -10 -9
-10 -6 0 -6 13 -1 33 l9 32 -23 -29 c-17 -20 -25 -24 -29 -15 -4 12 -7 11 -16
-1 -9 -13 -11 -12 -11 5 0 11 -5 27 -10 35 -7 11 -10 6 -10 -21z"/>
<path d="M2344 2521 c-66 -28 -84 -113 -34 -162 16 -17 34 -28 39 -25 5 4 -4
19 -20 35 -44 45 -36 97 21 126 39 20 43 19 80 -11 38 -32 54 -23 19 11 -27
28 -74 39 -105 26z"/>
<path d="M1430 2501 c0 -12 -4 -21 -10 -21 -5 0 -10 6 -10 13 0 9 -3 8 -9 -2
-5 -7 -14 -10 -21 -6 -14 9 -5 -31 12 -52 27 -34 88 -4 117 57 l12 25 -20 -22
c-23 -27 -36 -30 -27 -7 5 14 4 15 -9 4 -12 -10 -15 -10 -15 3 0 9 -4 19 -10
22 -5 3 -10 -3 -10 -14z"/>
<path d="M597 2392 c-20 -21 -37 -40 -37 -43 0 -3 32 -31 71 -63 l70 -58 24
22 c53 50 53 117 -1 159 -42 33 -83 28 -127 -17z m104 8 c47 -26 56 -95 15
-129 -13 -11 -23 -6 -71 34 -30 26 -55 51 -55 55 0 14 52 50 72 50 11 0 28 -5
39 -10z"/>
<path d="M2010 2373 c0 -45 9 -63 34 -63 37 0 50 15 31 34 -12 12 -14 20 -7
29 8 10 4 12 -16 11 -15 0 -30 4 -34 10 -4 6 -8 -3 -8 -21z"/>
<path d="M1015 2366 c5 -23 3 -27 -10 -22 -9 3 -13 2 -10 -4 10 -17 -17 -11
-39 8 -20 17 -20 17 -2 -12 15 -23 16 -30 5 -37 -8 -5 -22 -7 -32 -5 -32 8 1
-22 39 -34 41 -14 49 -9 64 34 9 27 8 41 -5 67 -14 33 -15 33 -10 5z"/>
<path d="M1630 2379 c0 -23 -29 -32 -48 -17 -13 11 -14 10 -3 -9 6 -13 8 -23
2 -23 -12 0 -9 -33 4 -42 18 -13 53 -8 59 8 9 23 7 67 -4 84 -8 13 -10 13 -10
-1z"/>
<path d="M1851 2332 c-17 -32 -13 -48 14 -60 38 -17 92 -15 92 3 0 8 -7 15
-14 15 -8 0 -11 4 -8 10 3 6 -1 7 -9 4 -19 -7 -21 7 -4 24 8 8 8 12 1 12 -6 0
-16 -7 -24 -16 -11 -14 -14 -13 -25 7 l-11 22 -12 -21z"/>
<path d="M2160 2313 c-13 -43 -1 -89 25 -99 17 -7 72 13 82 29 3 6 1 7 -6 3
-6 -4 -18 0 -26 8 -14 14 -14 18 2 43 l17 28 -27 -24 c-25 -22 -32 -21 -28 3
1 5 -5 4 -13 -4 -14 -11 -15 -9 -10 19 9 43 -3 39 -16 -6z"/>
<path d="M2490 2304 c-36 -24 -67 -51 -68 -60 -4 -18 2 -16 51 19 16 10 29 18
31 16 20 -28 46 -68 46 -73 0 -3 -16 -16 -36 -30 -23 -15 -31 -26 -24 -31 10
-6 143 76 156 96 11 19 -17 16 -41 -3 l-28 -22 -29 34 c-15 19 -28 37 -28 40
0 3 14 14 30 25 16 11 30 23 30 28 0 16 -28 4 -90 -39z"/>
<path d="M1392 2334 c-3 -18 -33 -26 -48 -13 -17 14 -19 -2 -2 -19 7 -7 8 -12
2 -12 -19 0 -13 -39 8 -46 31 -9 50 16 45 62 -2 21 -4 34 -5 28z"/>
<path d="M1778 2277 c-13 -31 -9 -81 8 -105 17 -24 61 -30 95 -11 25 13 14 32
-14 23 -21 -7 -21 -6 -3 22 l19 29 -27 -24 c-29 -27 -47 -21 -28 9 10 16 9 18
-3 14 -10 -4 -15 0 -15 12 0 15 -2 16 -9 5 -7 -11 -10 -7 -13 15 -2 24 -4 26
-10 11z"/>
<path d="M1097 2249 c4 -33 4 -33 -13 -14 -16 19 -16 19 -10 -9 7 -27 6 -28
-10 -15 -16 13 -16 12 -6 -8 18 -33 14 -39 -10 -16 -35 31 -57 40 -25 10 34
-33 34 -38 -2 -35 -17 2 -31 -1 -32 -7 -2 -13 87 -39 107 -31 34 13 40 100 9
142 -10 15 -11 12 -8 -17z"/>
<path d="M912 2217 c-1 -10 -6 -16 -11 -12 -5 3 -12 1 -16 -5 -4 -7 -14 -6
-28 2 -20 10 -21 10 -8 -6 9 -10 11 -20 5 -24 -5 -4 -9 -16 -9 -27 0 -15 8
-21 32 -23 27 -3 33 1 38 21 4 13 5 39 2 58 -2 19 -5 26 -5 16z"/>
<path d="M1567 2223 c-12 -11 -7 -79 6 -98 18 -23 69 -14 65 13 -2 9 -7 20
-13 24 -6 5 -5 12 3 20 16 16 16 33 -1 20 -18 -15 -57 -4 -50 14 5 15 1 18
-10 7z"/>
<path d="M1262 2195 c-16 -34 -15 -98 0 -113 19 -19 65 -15 65 6 0 9 -5 20
-11 24 -8 5 -7 14 3 30 13 22 13 22 -4 8 -16 -14 -17 -12 -10 20 7 34 6 34
-10 15 -16 -20 -16 -19 -12 8 5 34 -6 35 -21 2z"/>
<path d="M472 2190 c-13 -5 -30 -26 -38 -45 -18 -43 -6 -76 39 -109 75 -55
170 11 138 97 -18 47 -91 77 -139 57z m97 -46 c17 -14 31 -35 31 -47 0 -53
-74 -76 -123 -37 -35 28 -42 56 -23 85 23 34 74 34 115 -1z"/>
<path d="M2272 2152 c-49 -68 -33 -112 41 -112 29 0 38 3 28 9 -12 8 -12 13
-3 24 10 12 8 14 -15 10 -25 -3 -26 -2 -10 9 51 35 53 39 22 27 -21 -7 -31 -7
-33 0 -2 6 -8 9 -13 5 -13 -8 -11 20 3 34 6 6 9 14 6 17 -3 4 -15 -7 -26 -23z"/>
<path d="M1970 2151 c-23 -43 -1 -71 57 -71 25 0 71 19 48 20 -5 0 -3 5 5 11
12 8 11 9 -5 5 -33 -9 -49 7 -35 35 l13 24 -28 -25 c-20 -18 -26 -20 -22 -8 4
13 2 15 -10 11 -11 -4 -14 -2 -9 5 4 7 5 12 2 12 -3 0 -10 -9 -16 -19z"/>
<path d="M1886 2098 c-8 -13 -18 -41 -21 -63 -10 -60 15 -86 86 -92 40 -3 50
-2 39 6 -8 6 -10 11 -5 12 6 1 -3 4 -20 8 l-30 7 30 18 c17 9 22 15 12 12 -70
-22 -81 -18 -50 16 16 18 16 18 -1 12 -15 -6 -17 -3 -12 17 6 22 6 22 -7 7
-21 -26 -27 -11 -11 28 16 39 11 45 -10 12z"/>
<path d="M948 2093 c6 -2 12 -9 12 -15 0 -6 8 -16 17 -23 14 -10 7 -12 -38 -9
-52 4 -52 2 1 -18 24 -9 24 -10 6 -24 -19 -14 -19 -14 5 -14 23 -1 23 -1 -6
-17 -24 -14 -26 -18 -12 -21 9 -2 15 -8 12 -13 -10 -15 14 -10 46 8 27 16 69
84 69 112 0 16 -61 41 -97 40 -15 0 -22 -3 -15 -6z"/>
<path d="M1500 2065 c-5 -36 0 -78 11 -92 17 -20 63 -16 84 7 18 20 18 21 1
14 -16 -6 -17 -3 -11 17 7 22 7 23 -10 9 -17 -13 -18 -13 -13 0 3 8 9 24 13
35 7 20 6 20 -9 1 -26 -32 -54 -31 -59 2 -3 20 -5 22 -7 7z"/>
<path d="M2603 2062 c-47 -37 -49 -96 -4 -136 16 -15 30 -18 68 -13 82 9 119
81 72 141 -17 21 -28 26 -67 26 -29 0 -55 -7 -69 -18z m119 -19 c18 -16 24
-50 10 -69 -27 -39 -93 -56 -124 -31 -32 24 -32 55 1 87 34 34 83 40 113 13z"/>
<path d="M1655 2027 c-35 -84 0 -137 90 -137 32 0 35 2 21 15 -8 8 -22 15 -30
15 -23 0 -20 18 5 25 11 4 19 9 16 11 -2 3 -17 0 -32 -6 -34 -13 -40 -8 -25
20 10 18 9 21 0 15 -10 -6 -11 -1 -6 21 5 23 4 25 -4 12 -17 -28 -31 -22 -19
8 15 41 1 42 -16 1z"/>
<path d="M2100 1975 c8 -21 6 -25 -8 -26 -23 -2 -24 -2 -47 7 -18 6 -17 4 5
-20 18 -20 20 -25 7 -20 -13 5 -16 2 -11 -10 4 -11 1 -16 -12 -16 -16 0 -17
-2 -4 -10 25 -16 87 -12 94 6 9 24 7 61 -6 89 -15 32 -30 33 -18 0z"/>
<path d="M1282 1968 c-2 -33 -25 -37 -55 -10 -19 17 -20 16 -8 -6 14 -27 5
-44 -10 -22 -8 11 -9 9 -4 -9 6 -20 4 -23 -11 -17 -15 5 -14 1 5 -14 52 -45
95 -14 88 63 -2 24 -4 30 -5 15z"/>
<path d="M718 1928 c3 -14 2 -19 -6 -14 -7 4 -12 2 -12 -5 0 -7 -8 -9 -21 -6
-20 5 -20 5 -3 -14 13 -15 15 -22 6 -31 -19 -19 -14 -28 18 -28 39 0 52 25 39
73 -5 20 -14 39 -18 42 -5 3 -7 -5 -3 -17z"/>
<path d="M2353 1920 c-38 -23 -67 -64 -60 -84 7 -18 44 -42 77 -50 25 -6 25
-6 3 5 -31 16 -29 29 5 29 l27 1 -30 14 -30 13 50 2 50 2 -37 10 c-39 10 -51
27 -20 29 14 0 14 2 -3 8 -18 7 -17 9 10 24 24 13 26 16 10 17 -11 0 -34 -9
-52 -20z"/>
<path d="M355 1895 c-58 -57 -10 -145 79 -145 67 0 105 59 80 125 -18 47 -120
60 -159 20z m133 -30 c28 -33 28 -40 -4 -72 -21 -21 -32 -24 -61 -20 -46 8
-73 33 -73 68 0 61 91 77 138 24z"/>
<path d="M813 1905 c-6 -7 -9 -16 -6 -19 4 -3 -4 -6 -16 -6 -15 0 -20 -4 -14
-12 14 -24 11 -39 -10 -49 -17 -7 -14 -8 13 -3 72 12 101 52 63 87 -15 12 -20
13 -30 2z"/>
<path d="M1504 1864 c15 -86 70 -116 122 -69 28 25 28 26 5 19 -21 -5 -23 -4
-18 16 5 21 5 21 -15 3 -21 -18 -21 -18 -14 7 18 61 18 65 -1 38 -20 -32 -33
-36 -34 -10 0 10 -3 12 -6 5 -7 -18 -23 -16 -23 1 0 8 -5 18 -11 22 -9 5 -10
-4 -5 -32z"/>
<path d="M1956 1868 c-21 -34 -30 -92 -17 -117 9 -16 21 -21 54 -21 29 0 38 3
28 9 -13 8 -13 12 0 27 13 15 12 16 -11 9 -25 -7 -25 -7 5 25 30 33 29 34 -24
12 -10 -4 -13 -1 -8 11 4 11 2 14 -9 10 -16 -6 -18 10 -4 38 15 26 4 24 -14
-3z"/>
<path d="M914 1815 c3 -8 9 -23 13 -32 5 -12 2 -15 -10 -10 -11 4 -14 2 -10
-9 6 -17 -5 -18 -44 -4 -30 11 -30 11 32 -36 19 -14 19 -15 -10 -10 -26 4 -27
3 -12 -9 22 -16 22 -22 0 -28 -10 -3 0 -5 23 -6 22 0 45 4 52 11 19 19 14 77
-9 114 -21 35 -36 46 -25 19z"/>
<path d="M1742 1802 c5 -35 -5 -42 -22 -14 -9 15 -10 14 -5 -5 8 -30 -11 -30
-42 -1 -13 12 -23 17 -23 11 0 -6 7 -16 16 -23 8 -8 20 -22 26 -33 8 -17 8
-19 -6 -14 -8 3 -18 2 -21 -4 -4 -5 -12 -6 -18 -3 -7 4 1 -7 17 -24 16 -18 38
-34 48 -38 44 -14 87 71 73 143 -4 21 -10 32 -12 25 -4 -10 -8 -10 -20 0 -14
11 -15 9 -11 -20z"/>
<path d="M1130 1791 c0 -35 70 -101 108 -101 32 0 63 30 61 60 0 10 -2 11 -6
3 -8 -20 -23 -15 -23 7 0 11 -4 20 -10 20 -5 0 -10 -9 -10 -20 0 -37 -20 -20
-21 18 -1 37 -1 37 -12 10 -11 -29 -26 -37 -28 -15 0 6 -4 3 -8 -8 -7 -18 -10
-17 -30 15 -19 32 -21 33 -21 11z"/>
<path d="M2669 1787 c-46 -35 -50 -88 -9 -129 28 -28 36 -30 78 -25 50 5 92
41 92 78 0 28 -26 75 -45 83 -28 10 -99 6 -116 -7z m121 -27 c36 -36 20 -82
-33 -99 -81 -27 -143 49 -81 98 34 27 88 27 114 1z"/>
<path d="M633 1723 c27 -4 39 -23 15 -23 -9 0 -9 -3 1 -9 12 -8 11 -13 -10
-30 l-24 -21 38 15 c37 15 48 10 25 -14 -11 -10 -9 -11 6 -5 16 6 18 4 13 -9
-5 -15 -3 -16 12 -8 10 6 21 18 25 27 20 52 -13 85 -84 83 -29 -1 -35 -3 -17
-6z"/>
<path d="M1368 1669 l4 -34 -33 30 -33 30 22 -29 c21 -27 29 -56 16 -56 -3 0
-15 5 -27 12 -20 10 -21 10 -8 -5 12 -15 11 -17 -10 -17 -19 0 -21 -2 -9 -10
11 -7 5 -10 -23 -10 -23 0 -36 -4 -32 -10 10 -16 118 -12 143 6 18 12 22 24
21 67 0 29 -3 46 -6 39 -4 -10 -8 -9 -18 4 -10 15 -11 12 -7 -17z"/>
<path d="M300 1626 c0 -8 28 -18 75 -26 41 -7 75 -16 75 -19 0 -4 -31 -15 -70
-25 -43 -11 -70 -23 -70 -31 0 -15 8 -18 95 -36 l60 -12 -77 -24 c-43 -13 -78
-28 -78 -34 0 -13 2 -12 102 18 49 14 88 32 88 39 0 7 -32 19 -77 30 l-78 17
70 22 c82 25 97 49 38 59 -21 3 -64 13 -95 20 -46 11 -58 12 -58 2z"/>
<path d="M1530 1597 c0 -14 -4 -16 -19 -7 -26 14 -38 13 -23 -2 25 -25 11 -29
-25 -7 l-38 23 25 -33 24 -34 -23 6 c-18 4 -20 3 -10 -9 9 -12 6 -14 -22 -14
-30 -1 -32 -2 -14 -12 29 -17 100 -14 129 6 21 13 25 22 20 44 -4 15 -10 34
-15 42 -7 13 -8 12 -9 -3z"/>
<path d="M980 1560 c-14 -5 -18 -8 -9 -9 26 -2 31 -39 7 -52 -28 -15 -16 -22
17 -9 23 9 26 8 22 -4 -4 -11 -1 -13 10 -9 13 5 13 3 4 -15 -17 -32 -12 -39 9
-13 24 28 28 111 6 111 -8 0 -20 2 -28 4 -7 2 -24 0 -38 -4z"/>
<path d="M2263 1530 c-41 -25 -66 -63 -58 -89 7 -23 43 -48 81 -56 l29 -6 -27
16 c-16 9 -28 18 -28 21 0 4 12 3 28 0 l27 -6 -24 14 c-18 10 -20 15 -10 19 8
3 5 6 -8 6 -36 1 -27 18 20 35 35 13 37 15 10 10 -37 -6 -40 -3 -17 20 26 27
11 37 -23 16z"/>
<path d="M820 1526 c0 -7 7 -19 15 -26 25 -21 17 -32 -17 -26 -31 5 -31 5 4
-7 20 -7 43 -18 50 -25 9 -9 5 -12 -22 -13 -19 -1 -27 -3 -17 -6 21 -5 23 -23
3 -23 -8 0 -17 -4 -20 -9 -3 -4 6 -6 19 -3 33 6 32 -4 -2 -23 l-28 -16 30 6
c41 9 74 31 87 61 10 20 8 29 -8 51 -27 36 -94 78 -94 59z"/>
<path d="M2636 1483 c-8 -53 -7 -73 3 -73 6 0 11 17 13 38 l3 37 88 -4 c110
-4 117 14 10 23 -43 4 -85 9 -94 12 -12 3 -18 -5 -23 -33z"/>
<path d="M650 1489 c0 -5 7 -9 15 -9 22 0 19 -40 -2 -41 -14 0 -15 -2 -3 -6 8
-3 22 -14 30 -25 10 -11 22 -17 32 -13 26 10 29 32 8 58 -21 26 -80 53 -80 36z"/>
<path d="M2438 1475 c-34 -19 -45 -52 -25 -72 17 -17 37 -10 37 13 0 8 10 15
23 15 16 1 18 2 5 6 -10 2 -18 13 -18 23 0 10 8 21 18 23 12 3 12 5 2 5 -8 1
-27 -5 -42 -13z"/>
<path d="M1781 1441 c-25 -25 -36 -82 -23 -118 10 -28 10 -27 12 12 l2 40 13
-30 14 -30 1 30 c1 29 1 29 16 10 13 -18 14 -17 8 15 l-5 35 36 -40 36 -40
-16 33 -16 33 38 -7 38 -7 -20 23 c-20 22 -85 60 -105 60 -5 0 -19 -9 -29 -19z"/>
<path d="M1142 1380 c-23 -17 -42 -33 -42 -36 0 -4 16 -3 36 0 l35 7 -16 -30
c-21 -42 -12 -39 15 4 27 43 55 49 39 9 -8 -23 -8 -25 5 -15 12 10 15 7 19
-16 l4 -28 2 28 c2 40 19 33 24 -10 3 -30 4 -26 5 17 3 101 -46 128 -126 70z"/>
<path d="M2347 1373 c-4 -3 -7 -18 -7 -33 0 -19 5 -26 19 -26 11 0 17 4 15 8
-11 17 9 7 25 -14 18 -21 18 -21 13 12 -5 32 -4 33 24 26 l29 -6 -24 20 c-22
19 -80 27 -94 13z"/>
<path d="M669 1329 c-24 -20 -24 -20 -1 -9 18 9 23 8 28 -5 3 -8 3 -22 0 -31
-6 -15 -4 -15 10 -3 9 8 27 12 40 11 18 -3 24 1 24 15 0 45 -60 58 -101 22z"/>
<path d="M1960 1331 c-12 -24 -13 -54 -1 -47 5 4 12 0 14 -6 3 -8 6 -6 6 5 1
28 17 20 29 -15 l10 -33 1 34 c1 30 3 32 18 20 11 -10 14 -10 9 -1 -9 15 6 16
22 0 8 -8 12 -9 12 -1 0 19 -60 63 -85 63 -14 0 -29 -9 -35 -19z"/>
<path d="M1013 1300 c-17 -10 -37 -29 -44 -42 -12 -23 -12 -23 10 -4 21 19 21
19 22 0 0 -11 3 -13 6 -6 9 22 23 2 17 -24 -9 -35 5 -29 18 8 10 28 12 30 19
12 4 -10 8 -13 8 -5 1 7 7 11 16 7 23 -8 19 30 -5 54 -25 25 -27 25 -67 0z"/>
<path d="M1314 484 c-19 -15 -18 -15 4 -11 21 5 22 3 22 -74 0 -46 4 -79 10
-79 6 0 10 37 10 90 0 96 -6 106 -46 74z"/>
<path d="M1422 488 c-14 -14 -16 -54 -3 -63 6 -3 3 -17 -6 -34 -20 -34 -12
-58 23 -71 38 -15 78 7 82 45 2 18 -2 33 -12 41 -14 10 -15 13 -1 24 34 28 10
70 -40 70 -17 0 -36 -5 -43 -12z m68 -17 c14 -28 -13 -55 -41 -41 -22 12 -25
30 -7 48 18 18 36 15 48 -7z m-4 -82 c21 -24 10 -52 -24 -57 -30 -5 -45 29
-26 56 19 27 26 27 50 1z"/>
<path d="M1570 483 c0 -10 -3 -28 -6 -40 -5 -18 -2 -23 13 -23 24 0 63 -27 63
-45 0 -26 -31 -46 -61 -40 -16 4 -29 2 -29 -3 0 -14 43 -20 71 -10 29 11 39
25 39 60 0 29 -23 48 -60 48 -16 0 -21 5 -18 23 2 18 10 23 41 25 52 4 46 22
-8 22 -36 0 -45 -3 -45 -17z"/>
<path d="M1728 442 c-21 -32 -38 -62 -38 -65 0 -4 18 -7 40 -7 36 0 40 -2 40
-25 0 -16 6 -25 15 -25 9 0 15 9 15 24 0 13 6 27 13 30 10 5 10 7 0 12 -8 3
-13 26 -13 60 0 74 -23 73 -72 -4z m42 -12 c0 -36 -2 -40 -26 -40 -14 0 -24 3
-22 8 7 15 43 72 46 72 1 0 2 -18 2 -40z"/>
</g>
</svg>
